<svg width="64" height="65" viewBox="0 0 64 65" fill="none" xmlns="http://www.w3.org/2000/svg">
<g clip-path="url(#clip0_2076_111)">
<path d="M56.8978 0.0869751H7.09338C3.17429 0.0869751 0 3.2617 0 7.18134V63.2002C0 63.6879 0.399002 64.087 0.886672 64.087H11.9745V52.0665C11.9745 51.2728 12.6173 50.6299 13.4109 50.6299H22.65C23.4436 50.6299 24.0865 51.2728 24.0865 52.0665V64.087H36.2383V50.8516C36.2383 50.4702 36.389 50.1067 36.6595 49.8362L43.5799 42.9147C44.1385 42.3561 45.0474 42.3561 45.6104 42.9147L52.5353 49.8362C52.8058 50.1067 52.9565 50.4702 52.9565 50.8516V64.087H56.9066C60.8257 64.087 64 60.9123 64 56.9926V7.18134C64 3.2617 60.8257 0.0869751 56.9066 0.0869751H56.8978ZM53.5151 23.7201C51.7019 24.1236 50.1236 22.5451 50.527 20.7316C50.7309 19.8182 51.4669 19.0821 52.3802 18.8782C54.1934 18.4747 55.7717 20.0532 55.3682 21.8667C55.1643 22.7801 54.4284 23.5161 53.5151 23.7201Z" fill="#423E3E"/>
</g>
<defs>
<clipPath id="clip0_2076_111">
<rect width="64" height="64" fill="white" transform="translate(0 0.0869751)"/>
</clipPath>
</defs>
</svg>
