<svg width="116" height="24" viewBox="0 0 116 24" fill="none" xmlns="http://www.w3.org/2000/svg">
<g clip-path="url(#clip0_63_23377)">
<path fill-rule="evenodd" clip-rule="evenodd" d="M67.1283 5.77039C70.2521 5.7704 72.2503 8.34355 72.2503 12.0525C72.2503 15.7616 70.1827 18.3349 67.1514 18.3349C65.4979 18.3349 64.4189 17.6619 63.7521 16.6426H63.706V21.5234C63.706 21.7208 63.5459 21.8823 63.3504 21.8823H60.582V6.09527H63.5902V7.57915H63.6597C64.4171 6.53662 65.5194 5.77039 67.1283 5.77039ZM66.3711 8.32021C64.4402 8.32021 63.6384 10.0124 63.6384 12.146C63.6384 14.2795 64.6268 15.7167 66.4865 15.7167C68.0705 15.7167 69.0823 14.3961 69.0823 12.146C69.0823 9.89758 68.3017 8.32026 66.3711 8.32021Z" fill="#423E3E"/>
<path fill-rule="evenodd" clip-rule="evenodd" d="M36.5273 5.77039C40.3177 5.77039 42.3391 8.69168 42.3391 12.9336H33.7946C34.024 14.7657 35.0356 15.9016 36.8028 15.9016C38.0206 15.9016 38.7318 15.3454 39.0768 14.441H42.1542C41.7187 16.5512 39.8573 18.3366 36.826 18.3366C32.9218 18.3366 30.7153 15.5785 30.7153 12.031V12.0292C30.7153 8.50504 33.0817 5.77039 36.5273 5.77039ZM36.5735 8.20544C34.9201 8.20545 34.1164 9.20313 33.8409 10.7553H39.0768C38.9843 9.24799 37.9976 8.20544 36.5735 8.20544Z" fill="#423E3E"/>
<path fill-rule="evenodd" clip-rule="evenodd" d="M53.6287 5.77039C57.4191 5.77039 59.4408 8.69168 59.4408 12.9336H50.8963C51.1256 14.7657 52.1372 15.9016 53.9044 15.9016C55.1222 15.9016 55.8335 15.3454 56.1784 14.441H59.2559C58.8203 16.5512 56.9588 18.3366 53.9276 18.3366C50.0233 18.3366 47.8169 15.5785 47.8169 12.031V12.0292C47.8169 8.50508 50.1833 5.77042 53.6287 5.77039ZM53.6751 8.20544C52.0216 8.20544 51.2179 9.20313 50.9424 10.7553H56.1784C56.0858 9.248 55.0992 8.20547 53.6751 8.20544Z" fill="#423E3E"/>
<path fill-rule="evenodd" clip-rule="evenodd" d="M90.8399 5.7937C94.2855 5.79372 95.8019 7.39254 95.8019 10.1756V16.2265C95.8019 17.1308 95.9388 17.6638 96.2163 17.872V17.9885H93.208C93.0249 17.757 92.9095 17.2007 92.8401 16.6678V16.666H92.7937C92.1964 17.5704 91.3466 18.2648 89.3251 18.2648C86.9126 18.2648 85.2129 16.989 85.2129 14.6257C85.2129 12.0059 87.3269 11.1716 89.9439 10.8001C91.8961 10.522 92.792 10.3605 92.792 9.4561C92.792 8.55173 92.1252 8.04214 90.8167 8.04214C89.3464 8.04215 88.6354 8.57508 88.543 9.7109H85.7639C85.8565 7.624 87.3945 5.7937 90.8399 5.7937ZM92.8632 12.0059C92.312 12.3307 91.4622 12.5155 90.6817 12.7021C89.0513 13.0736 88.2478 13.4433 88.2478 14.5575C88.2478 15.6719 88.982 16.0648 90.0862 16.0648C91.8783 16.0648 92.8649 14.9523 92.8649 13.7932L92.8632 13.7914V12.0059Z" fill="#423E3E"/>
<path d="M112.843 2.38608C113.039 2.38609 113.199 2.54762 113.199 2.74496V6.09528H115.29V8.18214H113.199V14.4876C113.199 15.3687 113.681 15.6701 114.37 15.6701C114.76 15.6701 115.286 15.647 115.29 15.6468V17.9651C115.285 17.9654 114.575 18.0117 113.338 18.0118C111.821 18.0118 110.144 17.4088 110.144 15.1605V8.18214H108.514V6.09528H110.144V2.38608H112.843Z" fill="#423E3E"/>
<path d="M76.5955 7.64732H76.6648C77.5146 6.39484 78.4801 5.7704 80.0873 5.7704C82.523 5.7704 84.1533 7.6259 84.1533 10.2224V17.9885H81.0295V10.6852C81.0295 9.40943 80.2953 8.50686 78.9849 8.50686C77.6071 8.50689 76.5955 9.61941 76.5955 11.2433V17.9902H73.4717V1.77066C73.4717 1.57329 73.6318 1.41178 73.8273 1.41177H76.5955V7.64732Z" fill="#423E3E"/>
<path d="M103.881 5.77039C106.315 5.77039 107.947 7.62589 107.947 10.2224V17.9885H104.823V10.6852C104.823 9.4094 104.089 8.50684 102.779 8.50684C101.401 8.50688 100.389 9.6194 100.389 11.2433V17.9902H97.2656V6.45415C97.2656 6.25676 97.4256 6.09527 97.6212 6.09527H100.32V7.71724H100.389C101.193 6.44147 102.272 5.77039 103.881 5.77039Z" fill="#423E3E"/>
<path d="M46.6505 17.9885H43.5269V1.77066C43.5269 1.57328 43.6868 1.41177 43.8824 1.41177H46.6505V17.9885Z" fill="#423E3E"/>
<path d="M3.17597 0C1.6975 0 0.5 1.19052 0.5 2.66038V23.6675C0.5 23.8503 0.650523 24 0.834495 24H5.01737V19.4923C5.01737 19.1946 5.25988 18.9535 5.55925 18.9535H9.0447C9.34406 18.9535 9.58657 19.1946 9.58657 19.4923V24H14.1708V19.0367C14.1708 18.8937 14.2277 18.7574 14.3297 18.6559L16.9405 16.0604C17.1513 15.8509 17.4941 15.8509 17.7064 16.0604L20.3189 18.6559C20.4209 18.7574 20.4778 18.8937 20.4778 19.0367V24H21.968C23.4464 24 24.6438 22.8095 24.6438 21.3396V2.66038C24.6438 1.19052 23.4464 0 21.968 0H3.17597ZM20.6884 8.86241C20.0044 9.01372 19.409 8.42179 19.5612 7.74172C19.6381 7.3992 19.9158 7.12318 20.2604 7.0467C20.9444 6.89539 21.5398 7.48732 21.3876 8.16739C21.3107 8.50991 21.0331 8.78593 20.6884 8.86241Z" fill="#423E3E"/>
</g>
<defs>
<clipPath id="clip0_63_23377">
<rect width="114.789" height="24" fill="white" transform="translate(0.5)"/>
</clipPath>
</defs>
</svg>
